<svg class="icon" style="width: 1em; height: 1em;vertical-align: middle;fill: currentColor;overflow: hidden;" viewBox="0 0 1024 1024" version="1.1" xmlns="http://www.w3.org/2000/svg" p-id="2250"><path d="M400 96c-9.6 0-19.2 3.2-22.4 9.6l-288 284.8c-12.8 12.8-12.8 32 0 44.8 12.8 12.8 32 12.8 44.8 0l233.6-230.4V896c0 16 16 32 32 32s32-16 32-32V128c0-16-16-32-32-32zM934.4 588.8c-12.8-12.8-32-12.8-44.8 0l-233.6 230.4V128c0-16-16-32-32-32s-32 16-32 32v768c0 16 16 32 32 32 9.6 0 19.2-3.2 22.4-9.6l288-284.8c12.8-12.8 12.8-32 0-44.8z" p-id="2251"></path></svg>